<?xml version="1.0" encoding="utf-8"?>
<!-- Generator: Adobe Illustrator 15.1.0, SVG Export Plug-In . SVG Version: 6.00 Build 0)  -->
<!DOCTYPE svg PUBLIC "-//W3C//DTD SVG 1.1//EN" "http://www.w3.org/Graphics/SVG/1.1/DTD/svg11.dtd">
<svg version="1.1" id="Selected_Items" xmlns="http://www.w3.org/2000/svg" xmlns:xlink="http://www.w3.org/1999/xlink" x="0px"
	 y="0px" width="1044px" height="153.5px" viewBox="0 0 1044 153.5" enable-background="new 0 0 1044 153.5" xml:space="preserve">
<path fill-rule="evenodd" clip-rule="evenodd" fill="#DD4E46" d="M667.65,116.1C678.283,105.434,683.6,92.55,683.6,77.45
	c0-15.133-5.316-28.017-15.949-38.65c-10.667-10.667-23.551-16-38.65-16c-15.134,0-28.017,5.333-38.65,16
	c-10.666,10.633-16,23.517-16,38.65c0,15.1,5.334,27.983,16,38.649c10.634,10.634,23.517,15.95,38.65,15.95
	C644.1,132.05,656.983,126.733,667.65,116.1z M680.35,128.85c-14.166,14.167-31.283,21.25-51.35,21.25
	c-20.1,0-37.233-7.083-51.4-21.25c-14.166-14.166-21.25-31.283-21.25-51.35c0-20.1,7.084-37.233,21.25-51.4
	C591.767,11.933,608.9,4.85,629,4.85c20.066,0,37.184,7.083,51.35,21.25c14.167,14.167,21.25,31.3,21.25,51.4
	C701.6,97.566,694.517,114.684,680.35,128.85z M643.15,63.3c3.899,3.9,5.85,8.617,5.85,14.15c0,5.533-1.95,10.25-5.85,14.149
	c-3.9,3.9-8.617,5.851-14.15,5.851s-10.25-1.95-14.15-5.851C610.95,87.7,609,82.983,609,77.45c0-5.534,1.95-10.25,5.85-14.15
	c3.9-3.9,8.617-5.85,14.15-5.85S639.25,59.4,643.15,63.3z"/>
<path fill-rule="evenodd" clip-rule="evenodd" fill="#3F3F3F" d="M520.25,3.225c2.66,0.077,4.927,1.052,6.8,2.925
	c1.967,1.967,2.95,4.333,2.95,7.1V140.5c0,2.767-0.983,5.116-2.95,7.05c-1.873,1.905-4.14,2.889-6.8,2.95h-18.3
	c-2.66-0.062-4.928-1.045-6.8-2.95c-1.967-1.934-2.95-4.283-2.95-7.05V46.25l-53.7,95c-2.797,4.982-7.214,8.065-13.25,9.25h-35.8
	c-2.66-0.062-4.928-1.045-6.8-2.95c-1.967-1.934-2.95-4.283-2.95-7.05V13.25c0-2.767,0.983-5.133,2.95-7.1
	c1.933-1.933,4.283-2.941,7.05-3.025h17.8c2.767,0.083,5.116,1.092,7.05,3.025c1.967,1.967,2.95,4.333,2.95,7.1V115l58.75-102.5
	c4.044-6.494,9.127-9.594,15.25-9.3L520.25,3.225z M134.25,31.75H102.5c-12.306,0.371-20.306,6.705-24,19L61.5,122h72.75V31.75z
	 M169.8,6.15c1.967,1.967,2.95,4.333,2.95,7.1V140.5c0,2.767-0.983,5.116-2.95,7.05c-1.934,1.967-4.283,2.95-7.05,2.95h-149
	c-2.767,0-5.133-0.983-7.1-2.95c-1.933-1.934-2.9-4.283-2.9-7.05V132c0-2.767,0.967-5.134,2.9-7.1c1.967-1.934,4.333-2.9,7.1-2.9H21
	l19.25-75.75c6.262-28.404,26.496-42.838,60.7-43.3l61.8,0.3C165.517,3.25,167.866,4.217,169.8,6.15z M347.3,6.15
	c1.967,1.967,2.95,4.333,2.95,7.1V140.5c0,2.767-0.983,5.116-2.95,7.05c-1.873,1.905-4.14,2.889-6.8,2.95h-19.05
	c-2.66-0.062-4.928-1.045-6.8-2.95c-1.967-1.934-2.95-4.283-2.95-7.05V88.25h-70.95v52.25c0,2.767-0.983,5.116-2.95,7.05
	c-1.873,1.905-4.14,2.889-6.8,2.95h-18.8c-2.66-0.062-4.928-1.045-6.8-2.95c-1.967-1.934-2.95-4.283-2.95-7.05V13.25
	c0-2.767,0.983-5.133,2.95-7.1c1.933-1.933,4.283-2.9,7.05-2.9h18.3c2.767,0,5.116,0.967,7.05,2.9c1.967,1.967,2.95,4.333,2.95,7.1
	v46h70.95v-46c0-2.767,0.983-5.133,2.95-7.1c1.933-1.933,4.283-2.967,7.05-3.1l18.55,0.025C343.017,3.192,345.366,4.217,347.3,6.15z
	"/>
<path fill-rule="evenodd" clip-rule="evenodd" fill="#3F3F3F" d="M1035.1,3.25c5.268-0.533,7.384,2.383,6.351,8.75l-36.5,103.5
	c-8.101,20.5-24.934,32.167-50.5,35h-31.2c-2.667-0.066-4.934-1.05-6.8-2.95c-1.967-1.934-2.95-4.283-2.95-7.05v-11.55
	c0.566-6.2,3.1-9.384,7.6-9.55c3.733-0.434,8.284-0.051,13.65,1.149c5.333,1.167,9.9,1.483,13.7,0.95
	c11.533-3.1,18.7-8.934,21.5-17.5l3.149-9.35H957.45c-21.367-0.067-37.783-9.534-49.25-28.4L883.45,12.5
	c-2.566-5.967-0.65-9.083,5.75-9.35L913,3.2c4.566,0.667,8.05,3.35,10.45,8.05L936.7,43.5c6.6,13.8,16.35,21.133,29.25,22h16.95
	l17.8-53c3.366-6.267,8.45-9.35,15.25-9.25H1035.1z M805.75,31.75h-41v57h41c20.566-0.2,31.134-9.45,31.7-27.75
	C837.684,41.333,827.116,31.583,805.75,31.75z M818.45,3.2c36.967,1.167,56.383,19.6,58.25,55.3c0.7,35.7-17.617,55.45-54.95,59.25
	h-57v22.75c0,2.767-0.983,5.116-2.95,7.05c-1.866,1.9-4.133,2.884-6.8,2.95h-19c-2.667-0.066-4.934-1.05-6.8-2.95
	c-1.967-1.934-2.95-4.283-2.95-7.05V13.25c0-2.767,0.983-5.133,2.95-7.1c1.934-1.933,4.283-2.9,7.05-2.9L818.45,3.2z"/>
</svg>
